<svg width="2474" height="2475" xmlns="http://www.w3.org/2000/svg" xmlns:xlink="http://www.w3.org/1999/xlink" xml:space="preserve" overflow="hidden"><defs><clipPath id="clip0"><rect x="963" y="0" width="2474" height="2475"/></clipPath></defs><g clip-path="url(#clip0)" transform="translate(-963 0)"><path d="M2165.31 0 2202.53 0C2241.14 2.475 2279.87 1.50636 2318.43 4.68114 2392 12.7518 2465.04 25.88 2536.68 44.6038 2627.46 71.8826 2716.37 106.963 2798.65 154.472 2924.67 225.763 3037.29 319.221 3135.55 425.27 3222.78 531.641 3297.6 649.042 3349.55 776.72 3370.36 832.999 3393.38 889.009 3404.41 948.302 3423.45 1024.65 3434.53 1102.88 3437 1181.49L3437 1314.92C3431.68 1407.9 3414.3 1499.63 3390.21 1589.43 3355.95 1697.69 3309.59 1802.66 3246.88 1897.52 3195.3 1978.33 3135.23 2053.77 3068.16 2122.2 2991.63 2194.57 2906.6 2257.58 2817.1 2312.83 2731.48 2364.65 2638.11 2402.31 2542.11 2430.02 2456.87 2450.9 2370.65 2469.78 2282.77 2475L2101.15 2475C2025.74 2468.81 1950.99 2455.79 1877.79 2436.75 1707.35 2389.94 1550.09 2302.29 1412.57 2192.04 1341.09 2138.51 1283.11 2069.85 1226.48 2001.47 1128.33 1882.78 1062.28 1740.89 1014.52 1595.3 992.257 1517.01 976.446 1436.85 967.625 1355.98 965.205 1324.5 965.097 1292.86 963 1261.39L963 1213.56C965.097 1180.25 965.097 1146.89 967.679 1113.64 975.585 1041.6 989.353 970.254 1007.53 900.093 1031.73 819.44 1063.04 740.832 1102.24 666.259 1163.07 554.508 1240.14 451.741 1329.31 361.027 1362.17 327.561 1394.87 293.556 1432.68 265.578 1528.26 195.633 1630.5 133.919 1740.21 88.8311 1799.05 66.2331 1858.32 43.3125 1920.87 33.305 2000.95 13.6663 2082.81 1.82936 2165.31 0M2054.57 47.6169C1980.14 53.7506 1907.96 74.0887 1836.38 94.1038 1788.83 112.182 1740.1 127.785 1694.77 151.19 1628.51 180.46 1567.14 219.36 1506.47 258.476 1383.58 347.307 1277.14 458.628 1191.63 583.723 1145.75 659.588 1104.07 738.572 1074.71 822.453 1050.83 878.518 1037.87 938.294 1023.02 997.156 994.947 1114.5 994.785 1236.26 1002.91 1356.03 1011.35 1439.75 1032.86 1521.37 1055.77 1602.08 1071.16 1644.1 1084.71 1686.87 1102.67 1727.93 1124.4 1771.35 1140.38 1818.21 1171.08 1856.57 1175.44 1806.37 1184.42 1756.17 1203.35 1709.26 1249.61 1592.23 1339.85 1493.72 1451.99 1436.9 1468.45 1428.51 1487.76 1423.66 1500.23 1409.19 1512.93 1395.47 1514.06 1375.94 1520.03 1359.1 1538.37 1307.55 1566.49 1260.26 1596.99 1215.12 1652.6 1130.11 1726.12 1057.9 1775.76 968.909 1788.67 947.656 1788.4 922.422 1787.81 898.479 1787.38 758.534 1795.82 617.997 1824.92 480.849 1831.43 448.943 1833.04 415.047 1849.01 385.992 1857.94 369.959 1863.97 352.58 1870.2 335.416 1875.1 336.223 1884.83 337.891 1889.73 338.698 1892.09 373.294 1883.06 407.084 1880.91 441.411 1879.56 459.274 1879.03 477.191 1877.63 495.108 1866.98 595.13 1868.54 695.905 1867.25 796.304 1867.73 866.358 1865.15 941.253 1900.81 1004.26 1914.84 1028.52 1937.49 1055.21 1968.41 1052.95 2014.4 1054.13 2060.6 1045.58 2103.19 1028.2 2136.75 1016.15 2159.02 980.584 2152.99 944.966 2125.13 949.647 2098.3 958.578 2070.76 964.282 2053.01 964.174 2036.39 956.372 2020.42 949.432 1986 934.851 1968.9 893.098 1977.39 857.695 1986.11 822.023 1999.77 787.211 2020.69 756.866 2034.08 737.927 2044.41 716.513 2060.7 699.779 2076.03 686.974 2097.65 681.486 2117.23 685.898 2157.94 693.592 2190.32 725.336 2208.28 761.385 2226.14 804.913 2219.74 852.96 2220.71 898.748 2220.01 982.898 2192.69 1067.64 2136.97 1131.45 2107.06 1164.43 2075.33 1197.2 2036.02 1218.78 1993.53 1232.66 1948.35 1237.72 1903.82 1237.98 1874.19 1238.85 1851 1216.46 1834.87 1194.08 1809.05 1149.48 1795.93 1098.79 1788.99 1048.05 1764.63 1082.81 1744.46 1120.42 1718.27 1153.94 1695.73 1187.09 1669.6 1217.48 1646.36 1250.14 1679.81 1256.44 1713.54 1264.13 1744.08 1279.58 1761.35 1289.26 1780.23 1306.96 1775.71 1328.75 1770.17 1357.27 1760.92 1384.92 1750 1411.83 1733.27 1456.43 1702.56 1497.7 1659.65 1519.81 1625.33 1536.87 1585.59 1532.24 1550.36 1546.23 1520.13 1556.99 1489.64 1567 1459.63 1578.3 1401.11 1604.07 1339.59 1629.9 1295.59 1678 1255.42 1721.52 1243.26 1781.14 1227.13 1836.18 1221.26 1862.22 1210.67 1887.78 1210.78 1914.79 1216.42 1932.17 1231.38 1944.54 1241.11 1959.66 1290.21 2029.77 1350.93 2090.89 1417.03 2145.02 1455.33 2178.86 1495.88 2210.23 1538.96 2237.78 1701 2348.99 1892.31 2414.74 2087.54 2433.57 2160.31 2438.68 2233.34 2438.36 2306.17 2434.32 2394.16 2426.63 2480.53 2406.61 2565.29 2382.46 2600.47 2369.81 2635.16 2355.82 2670.17 2342.8 2786.71 2290.83 2895.52 2221.26 2990.98 2136.41 3097.79 2045.91 3183.63 1932.98 3252.1 1811.38 3279.47 1761.5 3305.18 1710.44 3323.52 1656.47 3337.66 1622.26 3349.66 1587.23 3357.56 1551.07 3377.95 1480.48 3390.59 1407.84 3396.45 1334.67 3400.86 1244.82 3402.26 1154 3387.47 1065 3361.92 893.636 3298.94 727.973 3202.78 583.777 3173.79 538.474 3143.02 493.924 3105.75 455.023 3062.35 407.138 3016.96 361.027 2968.55 318.145 2908.32 262.296 2836.03 222.373 2765.15 182.02 2595.46 91.1445 2403.84 37.8782 2210.7 40.6224 2158.64 41.1064 2106.2 39.3311 2054.57 47.6169Z" fill-rule="evenodd"/><path d="M2239.95 314C2277.55 324.978 2315.52 346.612 2332.58 383.529 2339.84 406.131 2329.78 430.994 2315.85 448.968 2294.54 471.194 2272.49 494.065 2243.98 506.927 2217.84 490.137 2199.39 462.637 2170.02 450.905 2143.71 481.096 2115.42 513.062 2076.69 527 2049.58 500.2 2021.61 474.261 1991.86 450.313 1977.87 440.842 1992.45 426.204 1999.12 416.948 2022.63 390.417 2045.33 362.864 2072.12 339.508 2080.02 330.414 2092.99 335.365 2101.97 339.831 2125.32 352.908 2144.9 371.474 2166.52 387.027 2189.17 360.927 2213.37 336.118 2239.95 314Z" fill-rule="evenodd"/><path d="M3086.57 740.007C3121.63 730.295 3150.54 707.274 3183.55 693 3186.19 696.059 3191.36 702.176 3194 705.235 3127.17 798.659 3021.85 867.72 2906.02 879.633 2821.2 890.205 2738.01 862.193 2653.47 862.784 2630.85 868.955 2618.19 890.634 2603.44 907 2594.61 903.995 2585.83 900.937 2577 897.824 2602.31 846.095 2630.69 793.346 2676.24 756.427 2691.81 743.549 2712 736.734 2732.3 737.592 2825.62 743.763 2918.73 759.325 3012.53 754.227 3037.57 751.812 3062.23 746.232 3086.57 740.007Z" fill-rule="evenodd"/><path d="M2351.48 1022.47C2356.97 1015.95 2365.16 1020.42 2372 1021.5 2358.8 1077.75 2361.34 1135.95 2352.99 1192.85 2347.01 1232.68 2347.82 1273.06 2343.24 1312.95 2336.29 1367 2337.42 1421.75 2330.53 1475.8 2324.01 1526.08 2330.96 1578.19 2314.75 1627.01 2295.84 1687.09 2278.34 1747.65 2257.28 1807.09 2246.51 1807.46 2235.79 1807.73 2225.02 1808 2224.59 1779.85 2232.07 1752.44 2233.96 1724.51 2239.08 1651.94 2241.5 1579.16 2248.18 1506.64 2252.22 1419 2254.91 1331.2 2261.75 1243.77 2277.42 1192.96 2291.75 1141.49 2313.4 1092.77 2324.23 1068.6 2331.34 1040.93 2351.48 1022.47Z" fill-rule="evenodd"/><path d="M2857.26 1053C2864.75 1053.38 2872.29 1053.75 2879.88 1054.13 2880.47 1073.34 2878.8 1092.55 2875.79 1111.49 2870.67 1144.04 2870.73 1177.08 2866.74 1209.74 2857.42 1277.91 2857.21 1346.94 2850.42 1415.39 2843.37 1465.1 2844.07 1515.52 2837.17 1565.29 2829.9 1619.47 2834.43 1674.95 2821.45 1728.38 2811.7 1773.68 2793.77 1816.62 2779.98 1860.74 2775.78 1873.76 2770.34 1886.41 2764.85 1898.95 2755.58 1899 2746.27 1899 2737.06 1899 2736.73 1882.05 2737.81 1865.1 2740.29 1848.31 2746.8 1804.41 2745.89 1759.8 2750.68 1715.68 2757.79 1655.26 2757.04 1594.29 2762.58 1533.76 2769.05 1466.07 2767.7 1397.95 2773.62 1330.26 2776.75 1299 2774.05 1266.45 2785.85 1236.64 2809.49 1175.36 2827.48 1111.81 2857.26 1053Z" fill-rule="evenodd"/><path d="M2591.67 1138.88C2597.06 1133.77 2605.1 1133.98 2611.14 1137.91 2641.88 1154.2 2670.25 1176.62 2689.94 1205.55 2700.19 1227.76 2697.87 1257.5 2679.69 1275.19 2655.75 1300.73 2627.27 1327.18 2593.07 1336 2557.69 1313.52 2529.16 1281.96 2495.13 1257.6 2493.19 1232.81 2513.9 1216.52 2529 1200.12 2549.87 1179.69 2568.86 1157.21 2591.67 1138.88Z" fill-rule="evenodd"/><path d="M1944.4 1422.51C1962.59 1413.53 1977.99 1430.69 1990.58 1441.39 2036.45 1481.23 2080.43 1533.43 2081.23 1597.26 2081.77 1663.17 2087.37 1732.91 2057.87 1794.09 2035.21 1849.47 1995.97 1896.09 1953.12 1937.11 1930.62 1960.02 1898.37 1967.49 1868.82 1976.85 1819.62 1989.43 1771.55 2007.44 1721 2014 1721.05 2009.43 1721.11 2000.29 1721.11 1995.72 1809.66 1940.93 1896.92 1882.97 1974.7 1813.45 1991.23 1798.29 2007.32 1777.64 2003.72 1753.77 2001.73 1724.2 1979.6 1701.67 1957.64 1684.25 1926.04 1655.91 1887.55 1637.36 1850.68 1617.09 1854.55 1566.39 1886.47 1523.7 1909.89 1480.15 1920.82 1460.63 1930.72 1440.31 1944.4 1422.51Z" fill-rule="evenodd"/><path d="M2596.38 1497.31C2609.85 1496.07 2623.42 1495.8 2637 1496.13 2631.99 1529.58 2619.76 1561.26 2612.11 1594.13 2601.93 1640.71 2584.1 1685.14 2569.93 1730.54 2561.69 1756.89 2549.68 1781.8 2538.95 1807.18 2508.57 1890.45 2435.15 1956.12 2349.65 1979.04 2294.22 1989.15 2240.19 2006.74 2184.32 2014 2184.11 2003.14 2184 1992.32 2184 1981.51 2216.38 1972.1 2243.42 1951.44 2270.62 1932.35 2355.42 1863.34 2432.72 1785.83 2508.73 1707.46 2527.86 1688.04 2533.57 1660.56 2544.88 1636.62 2565.78 1591.65 2580 1544 2596.38 1497.31Z" fill-rule="evenodd"/></g></svg>